<svg xmlns="http://www.w3.org/2000/svg" viewBox="0 0 1087 295" width="1087" height="295">
  <path fill="#0232D2" fill-rule="evenodd" d="M 920 14 L 919 15 L 914 15 L 913 16 L 910 16 L 909 17 L 907 17 L 906 18 L 905 18 L 904 19 L 903 19 L 902 20 L 901 20 L 900 21 L 899 21 L 898 22 L 897 22 L 894 25 L 893 25 L 888 30 L 888 31 L 885 34 L 885 35 L 884 36 L 884 37 L 882 39 L 882 40 L 881 41 L 881 42 L 880 43 L 880 45 L 879 46 L 879 47 L 878 48 L 878 50 L 877 51 L 877 52 L 876 53 L 876 55 L 875 56 L 875 58 L 874 59 L 874 60 L 873 61 L 873 63 L 872 64 L 872 65 L 871 66 L 871 68 L 870 69 L 870 70 L 869 71 L 869 73 L 868 74 L 868 76 L 867 77 L 867 78 L 866 79 L 866 81 L 865 82 L 865 83 L 864 84 L 864 86 L 863 87 L 863 89 L 862 90 L 862 91 L 861 92 L 861 94 L 860 95 L 860 96 L 859 97 L 859 99 L 858 100 L 858 102 L 857 103 L 857 104 L 856 105 L 856 107 L 855 108 L 855 109 L 854 110 L 854 112 L 853 113 L 853 115 L 852 116 L 852 117 L 851 118 L 851 120 L 850 121 L 850 122 L 849 123 L 849 125 L 848 126 L 848 128 L 847 129 L 847 130 L 846 131 L 846 133 L 845 134 L 845 135 L 844 136 L 844 138 L 843 139 L 843 140 L 842 141 L 842 143 L 841 144 L 841 146 L 840 147 L 840 148 L 839 149 L 839 151 L 838 152 L 838 153 L 837 154 L 837 156 L 836 157 L 836 159 L 835 160 L 835 161 L 834 162 L 834 164 L 833 165 L 833 166 L 832 167 L 832 169 L 831 170 L 831 172 L 830 173 L 830 174 L 829 175 L 829 177 L 828 178 L 828 179 L 827 180 L 827 182 L 826 183 L 826 185 L 825 186 L 825 187 L 824 188 L 824 190 L 823 191 L 823 192 L 822 193 L 822 195 L 821 196 L 821 197 L 820 198 L 820 200 L 819 201 L 819 203 L 818 204 L 818 205 L 817 206 L 817 208 L 816 209 L 816 210 L 815 211 L 815 213 L 814 214 L 814 216 L 813 217 L 813 218 L 812 219 L 812 221 L 811 222 L 811 223 L 810 224 L 810 226 L 809 227 L 809 229 L 808 230 L 808 231 L 807 232 L 807 234 L 806 235 L 806 236 L 805 237 L 805 239 L 804 240 L 804 242 L 803 243 L 803 244 L 802 245 L 802 247 L 801 248 L 801 249 L 800 250 L 800 252 L 799 253 L 799 255 L 798 256 L 798 257 L 797 258 L 797 260 L 796 261 L 796 262 L 795 263 L 795 265 L 794 266 L 794 267 L 793 268 L 793 270 L 792 271 L 792 273 L 791 274 L 791 276 L 839 276 L 839 275 L 840 274 L 840 273 L 841 272 L 841 270 L 842 269 L 842 267 L 843 266 L 843 265 L 844 264 L 844 262 L 845 261 L 845 260 L 846 259 L 846 257 L 847 256 L 847 254 L 848 253 L 848 252 L 849 251 L 849 249 L 850 248 L 850 247 L 851 246 L 851 244 L 852 243 L 852 241 L 853 240 L 853 239 L 854 238 L 854 236 L 855 235 L 855 234 L 856 233 L 856 231 L 857 230 L 857 228 L 858 227 L 858 226 L 859 225 L 859 223 L 860 222 L 860 221 L 861 220 L 861 218 L 862 217 L 862 215 L 863 214 L 863 213 L 864 212 L 864 210 L 865 209 L 865 207 L 866 206 L 866 205 L 867 204 L 867 202 L 868 201 L 868 200 L 869 199 L 869 197 L 870 196 L 870 194 L 871 193 L 871 192 L 872 191 L 872 189 L 873 188 L 873 187 L 874 186 L 874 184 L 875 183 L 875 181 L 876 180 L 876 179 L 877 178 L 877 176 L 878 175 L 878 174 L 879 173 L 879 171 L 880 170 L 880 168 L 881 167 L 881 166 L 882 165 L 882 163 L 883 162 L 883 161 L 884 160 L 884 158 L 885 157 L 885 155 L 886 154 L 886 153 L 887 152 L 887 150 L 888 149 L 888 148 L 889 147 L 889 145 L 890 144 L 890 142 L 891 141 L 891 140 L 892 139 L 892 137 L 893 136 L 893 135 L 894 134 L 894 132 L 895 131 L 895 129 L 896 128 L 896 127 L 897 126 L 897 124 L 898 123 L 898 122 L 899 121 L 899 119 L 900 118 L 900 116 L 901 115 L 901 114 L 902 113 L 902 111 L 903 110 L 903 109 L 904 108 L 904 106 L 905 105 L 905 103 L 906 102 L 906 101 L 907 100 L 907 98 L 908 97 L 908 96 L 909 95 L 909 93 L 910 92 L 910 90 L 911 89 L 911 88 L 912 87 L 912 85 L 913 84 L 913 82 L 914 81 L 914 80 L 915 79 L 915 77 L 916 76 L 916 75 L 917 74 L 917 72 L 918 71 L 918 69 L 919 68 L 919 67 L 920 66 L 920 65 L 924 61 L 925 61 L 926 60 L 927 60 L 928 59 L 936 59 L 937 60 L 938 60 L 944 66 L 944 68 L 945 69 L 945 71 L 946 72 L 946 73 L 947 74 L 947 76 L 948 77 L 948 79 L 949 80 L 949 81 L 950 82 L 950 84 L 951 85 L 951 87 L 952 88 L 952 90 L 953 91 L 953 92 L 954 93 L 954 95 L 955 96 L 955 98 L 956 99 L 956 100 L 957 101 L 957 103 L 958 104 L 958 106 L 959 107 L 959 109 L 960 110 L 960 111 L 961 112 L 961 114 L 962 115 L 962 117 L 963 118 L 963 120 L 964 121 L 964 122 L 965 123 L 965 125 L 966 126 L 966 128 L 967 129 L 967 130 L 968 131 L 968 133 L 969 134 L 969 136 L 970 137 L 970 139 L 971 140 L 971 141 L 972 142 L 972 144 L 973 145 L 973 147 L 974 148 L 974 149 L 975 150 L 975 152 L 976 153 L 976 155 L 977 156 L 977 158 L 978 159 L 978 160 L 979 161 L 979 163 L 980 164 L 980 166 L 981 167 L 981 168 L 982 169 L 982 171 L 983 172 L 983 174 L 984 175 L 984 177 L 985 178 L 985 179 L 986 180 L 986 182 L 987 183 L 987 185 L 988 186 L 988 187 L 989 188 L 989 190 L 990 191 L 990 193 L 991 194 L 991 196 L 992 197 L 992 198 L 993 199 L 993 201 L 994 202 L 994 204 L 995 205 L 995 207 L 996 208 L 996 209 L 997 210 L 997 212 L 998 213 L 998 215 L 999 216 L 999 217 L 1000 218 L 1000 220 L 1001 221 L 1001 223 L 1002 224 L 1002 226 L 1003 227 L 1003 228 L 1004 229 L 1004 231 L 1005 232 L 1005 234 L 1006 235 L 1006 236 L 1007 237 L 1007 239 L 1008 240 L 1008 242 L 1009 243 L 1009 245 L 1010 246 L 1010 247 L 1011 248 L 1011 250 L 1012 251 L 1012 253 L 1013 254 L 1013 255 L 1014 256 L 1014 258 L 1015 259 L 1015 261 L 1016 262 L 1016 264 L 1017 265 L 1017 266 L 1018 267 L 1018 269 L 1019 270 L 1019 272 L 1020 273 L 1020 274 L 1021 275 L 1021 276 L 1070 276 L 1069 275 L 1069 273 L 1068 272 L 1068 270 L 1067 269 L 1067 267 L 1066 266 L 1066 265 L 1065 264 L 1065 262 L 1064 261 L 1064 259 L 1063 258 L 1063 257 L 1062 256 L 1062 254 L 1061 253 L 1061 251 L 1060 250 L 1060 249 L 1059 248 L 1059 246 L 1058 245 L 1058 243 L 1057 242 L 1057 241 L 1056 240 L 1056 238 L 1055 237 L 1055 235 L 1054 234 L 1054 232 L 1053 231 L 1053 230 L 1052 229 L 1052 227 L 1051 226 L 1051 224 L 1050 223 L 1050 222 L 1049 221 L 1049 219 L 1048 218 L 1048 216 L 1047 215 L 1047 214 L 1046 213 L 1046 211 L 1045 210 L 1045 208 L 1044 207 L 1044 206 L 1043 205 L 1043 203 L 1042 202 L 1042 200 L 1041 199 L 1041 197 L 1040 196 L 1040 195 L 1039 194 L 1039 192 L 1038 191 L 1038 189 L 1037 188 L 1037 187 L 1036 186 L 1036 184 L 1035 183 L 1035 181 L 1034 180 L 1034 179 L 1033 178 L 1033 176 L 1032 175 L 1032 173 L 1031 172 L 1031 170 L 1030 169 L 1030 168 L 1029 167 L 1029 165 L 1028 164 L 1028 162 L 1027 161 L 1027 160 L 1026 159 L 1026 157 L 1025 156 L 1025 154 L 1024 153 L 1024 152 L 1023 151 L 1023 149 L 1022 148 L 1022 146 L 1021 145 L 1021 144 L 1020 143 L 1020 141 L 1019 140 L 1019 138 L 1018 137 L 1018 135 L 1017 134 L 1017 133 L 1016 132 L 1016 130 L 1015 129 L 1015 127 L 1014 126 L 1014 125 L 1013 124 L 1013 122 L 1012 121 L 1012 119 L 1011 118 L 1011 117 L 1010 116 L 1010 114 L 1009 113 L 1009 111 L 1008 110 L 1008 109 L 1007 108 L 1007 106 L 1006 105 L 1006 103 L 1005 102 L 1005 100 L 1004 99 L 1004 98 L 1003 97 L 1003 95 L 1002 94 L 1002 92 L 1001 91 L 1001 90 L 1000 89 L 1000 87 L 999 86 L 999 84 L 998 83 L 998 82 L 997 81 L 997 79 L 996 78 L 996 76 L 995 75 L 995 74 L 994 73 L 994 71 L 993 70 L 993 68 L 992 67 L 992 65 L 991 64 L 991 63 L 990 62 L 990 60 L 989 59 L 989 57 L 988 56 L 988 55 L 987 54 L 987 52 L 986 51 L 986 49 L 985 48 L 985 47 L 984 46 L 984 44 L 983 43 L 983 42 L 982 41 L 982 40 L 981 39 L 981 38 L 980 37 L 980 36 L 978 34 L 978 33 L 975 30 L 975 29 L 971 25 L 970 25 L 967 22 L 966 22 L 965 21 L 964 21 L 963 20 L 962 20 L 961 19 L 960 19 L 959 18 L 958 18 L 957 17 L 955 17 L 954 16 L 951 16 L 950 15 L 945 15 L 944 14 Z M 431 14 L 430 15 L 426 15 L 425 16 L 422 16 L 421 17 L 419 17 L 418 18 L 416 18 L 415 19 L 414 19 L 413 20 L 412 20 L 411 21 L 410 21 L 408 23 L 407 23 L 398 32 L 398 33 L 396 35 L 396 36 L 394 38 L 394 39 L 393 40 L 393 41 L 392 42 L 392 43 L 391 44 L 391 46 L 390 47 L 390 48 L 389 49 L 389 51 L 388 52 L 388 53 L 387 54 L 387 56 L 386 57 L 386 59 L 385 60 L 385 61 L 384 62 L 384 64 L 383 65 L 383 66 L 382 67 L 382 69 L 381 70 L 381 72 L 380 73 L 380 74 L 379 75 L 379 77 L 378 78 L 378 79 L 377 80 L 377 82 L 376 83 L 376 85 L 375 86 L 375 87 L 374 88 L 374 90 L 373 91 L 373 92 L 372 93 L 372 95 L 371 96 L 371 98 L 370 99 L 370 100 L 369 101 L 369 103 L 368 104 L 368 105 L 367 106 L 367 108 L 366 109 L 366 110 L 365 111 L 365 113 L 364 114 L 364 116 L 363 117 L 363 118 L 362 119 L 362 121 L 361 122 L 361 123 L 360 124 L 360 126 L 359 127 L 359 129 L 358 130 L 358 131 L 357 132 L 357 134 L 356 135 L 356 136 L 355 137 L 355 139 L 354 140 L 354 142 L 353 143 L 353 144 L 352 145 L 352 147 L 351 148 L 351 149 L 350 150 L 350 152 L 349 153 L 349 155 L 348 156 L 348 157 L 347 158 L 347 160 L 346 161 L 346 162 L 345 163 L 345 165 L 344 166 L 344 168 L 343 169 L 343 170 L 342 171 L 342 173 L 341 174 L 341 175 L 340 176 L 340 178 L 339 179 L 339 180 L 338 181 L 338 183 L 337 184 L 337 186 L 336 187 L 336 188 L 335 189 L 335 191 L 334 192 L 334 193 L 333 194 L 333 196 L 332 197 L 332 199 L 331 200 L 331 201 L 330 202 L 330 204 L 329 205 L 329 206 L 328 207 L 328 209 L 327 210 L 327 212 L 326 213 L 326 214 L 325 215 L 325 217 L 324 218 L 324 219 L 323 220 L 323 222 L 322 223 L 322 225 L 321 226 L 321 227 L 320 228 L 320 230 L 319 231 L 319 232 L 318 233 L 318 235 L 317 236 L 317 237 L 316 238 L 316 240 L 315 241 L 315 243 L 314 244 L 314 245 L 313 246 L 313 248 L 312 249 L 312 250 L 311 251 L 311 253 L 310 254 L 310 256 L 309 257 L 309 258 L 308 259 L 308 261 L 307 262 L 307 263 L 306 264 L 306 266 L 305 267 L 305 269 L 304 270 L 304 271 L 303 272 L 303 274 L 302 275 L 302 276 L 350 276 L 351 275 L 351 274 L 352 273 L 352 271 L 353 270 L 353 269 L 354 268 L 354 266 L 355 265 L 355 263 L 356 262 L 356 261 L 357 260 L 357 258 L 358 257 L 358 255 L 359 254 L 359 253 L 360 252 L 360 250 L 361 249 L 361 248 L 362 247 L 362 245 L 363 244 L 363 242 L 364 241 L 364 240 L 365 239 L 365 237 L 366 236 L 366 235 L 367 234 L 367 232 L 368 231 L 368 229 L 369 228 L 369 227 L 370 226 L 370 224 L 371 223 L 371 222 L 372 221 L 372 219 L 373 218 L 373 216 L 374 215 L 374 214 L 375 213 L 375 211 L 376 210 L 376 209 L 377 208 L 377 206 L 378 205 L 378 203 L 379 202 L 379 201 L 380 200 L 380 198 L 381 197 L 381 196 L 382 195 L 382 193 L 383 192 L 383 190 L 384 189 L 384 188 L 385 187 L 385 185 L 386 184 L 386 183 L 387 182 L 387 180 L 388 179 L 388 177 L 389 176 L 389 175 L 390 174 L 390 172 L 391 171 L 391 170 L 392 169 L 392 167 L 393 166 L 393 164 L 394 163 L 394 162 L 395 161 L 395 159 L 396 158 L 396 157 L 397 156 L 397 154 L 398 153 L 398 151 L 399 150 L 399 149 L 400 148 L 400 146 L 401 145 L 401 144 L 402 143 L 402 141 L 403 140 L 403 138 L 404 137 L 404 136 L 405 135 L 405 133 L 406 132 L 406 130 L 407 129 L 407 128 L 408 127 L 408 125 L 409 124 L 409 123 L 410 122 L 410 120 L 411 119 L 411 117 L 412 116 L 412 115 L 413 114 L 413 112 L 414 111 L 414 110 L 415 109 L 415 107 L 416 106 L 416 104 L 417 103 L 417 102 L 418 101 L 418 99 L 419 98 L 419 97 L 420 96 L 420 94 L 421 93 L 421 91 L 422 90 L 422 89 L 423 88 L 423 86 L 424 85 L 424 84 L 425 83 L 425 81 L 426 80 L 426 78 L 427 77 L 427 76 L 428 75 L 428 73 L 429 72 L 429 71 L 430 70 L 430 68 L 431 67 L 431 66 L 433 64 L 433 63 L 434 62 L 435 62 L 437 60 L 438 60 L 439 59 L 447 59 L 448 60 L 449 60 L 450 61 L 451 61 L 454 64 L 454 65 L 455 66 L 455 67 L 456 68 L 456 69 L 457 70 L 457 72 L 458 73 L 458 75 L 459 76 L 459 78 L 460 79 L 460 80 L 461 81 L 461 83 L 462 84 L 462 86 L 463 87 L 463 88 L 464 89 L 464 91 L 465 92 L 465 94 L 466 95 L 466 97 L 467 98 L 467 99 L 468 100 L 468 102 L 469 103 L 469 105 L 470 106 L 470 107 L 471 108 L 471 110 L 472 111 L 472 113 L 473 114 L 473 116 L 474 117 L 474 118 L 475 119 L 475 121 L 476 122 L 476 124 L 477 125 L 477 127 L 478 128 L 478 129 L 479 130 L 479 132 L 480 133 L 480 135 L 481 136 L 481 137 L 482 138 L 482 140 L 483 141 L 483 143 L 484 144 L 484 146 L 485 147 L 485 148 L 486 149 L 486 151 L 487 152 L 487 154 L 488 155 L 488 156 L 489 157 L 489 159 L 490 160 L 490 162 L 491 163 L 491 165 L 492 166 L 492 167 L 493 168 L 493 170 L 494 171 L 494 173 L 495 174 L 495 175 L 496 176 L 496 178 L 497 179 L 497 181 L 498 182 L 498 184 L 499 185 L 499 186 L 500 187 L 500 189 L 501 190 L 501 192 L 502 193 L 502 194 L 503 195 L 503 197 L 504 198 L 504 200 L 505 201 L 505 203 L 506 204 L 506 205 L 507 206 L 507 208 L 508 209 L 508 211 L 509 212 L 509 213 L 510 214 L 510 216 L 511 217 L 511 219 L 512 220 L 512 222 L 513 223 L 513 224 L 514 225 L 514 227 L 515 228 L 515 230 L 516 231 L 516 233 L 517 234 L 517 235 L 518 236 L 518 238 L 519 239 L 519 241 L 520 242 L 520 243 L 521 244 L 521 246 L 522 247 L 522 249 L 523 250 L 523 252 L 524 253 L 524 254 L 525 255 L 525 257 L 526 258 L 526 260 L 527 261 L 527 262 L 528 263 L 528 265 L 529 266 L 529 268 L 530 269 L 530 271 L 531 272 L 531 273 L 532 274 L 532 276 L 581 276 L 581 274 L 580 273 L 580 272 L 579 271 L 579 269 L 578 268 L 578 266 L 577 265 L 577 264 L 576 263 L 576 261 L 575 260 L 575 258 L 574 257 L 574 256 L 573 255 L 573 253 L 572 252 L 572 250 L 571 249 L 571 247 L 570 246 L 570 245 L 569 244 L 569 242 L 568 241 L 568 239 L 567 238 L 567 237 L 566 236 L 566 234 L 565 233 L 565 231 L 564 230 L 564 229 L 563 228 L 563 226 L 562 225 L 562 223 L 561 222 L 561 221 L 560 220 L 560 218 L 559 217 L 559 215 L 558 214 L 558 212 L 557 211 L 557 210 L 556 209 L 556 207 L 555 206 L 555 204 L 554 203 L 554 202 L 553 201 L 553 199 L 552 198 L 552 196 L 551 195 L 551 194 L 550 193 L 550 191 L 549 190 L 549 188 L 548 187 L 548 186 L 547 185 L 547 183 L 546 182 L 546 180 L 545 179 L 545 177 L 544 176 L 544 175 L 543 174 L 543 172 L 542 171 L 542 169 L 541 168 L 541 167 L 540 166 L 540 164 L 539 163 L 539 161 L 538 160 L 538 159 L 537 158 L 537 156 L 536 155 L 536 153 L 535 152 L 535 150 L 534 149 L 534 148 L 533 147 L 533 145 L 532 144 L 532 142 L 531 141 L 531 140 L 530 139 L 530 137 L 529 136 L 529 134 L 528 133 L 528 132 L 527 131 L 527 129 L 526 128 L 526 126 L 525 125 L 525 124 L 524 123 L 524 121 L 523 120 L 523 118 L 522 117 L 522 115 L 521 114 L 521 113 L 520 112 L 520 110 L 519 109 L 519 107 L 518 106 L 518 105 L 517 104 L 517 102 L 516 101 L 516 99 L 515 98 L 515 97 L 514 96 L 514 94 L 513 93 L 513 91 L 512 90 L 512 89 L 511 88 L 511 86 L 510 85 L 510 83 L 509 82 L 509 80 L 508 79 L 508 78 L 507 77 L 507 75 L 506 74 L 506 72 L 505 71 L 505 70 L 504 69 L 504 67 L 503 66 L 503 64 L 502 63 L 502 62 L 501 61 L 501 59 L 500 58 L 500 56 L 499 55 L 499 53 L 498 52 L 498 51 L 497 50 L 497 48 L 496 47 L 496 46 L 495 45 L 495 43 L 494 42 L 494 41 L 493 40 L 493 39 L 492 38 L 492 37 L 490 35 L 490 34 L 488 32 L 488 31 L 481 24 L 480 24 L 477 21 L 476 21 L 475 20 L 474 20 L 473 19 L 472 19 L 471 18 L 469 18 L 468 17 L 466 17 L 465 16 L 462 16 L 461 15 L 457 15 L 456 14 Z M 602 13 L 602 213 L 603 214 L 603 218 L 604 219 L 604 222 L 605 223 L 605 226 L 606 227 L 606 229 L 607 230 L 607 231 L 608 232 L 608 234 L 609 235 L 609 236 L 610 237 L 610 238 L 611 239 L 611 240 L 613 242 L 613 243 L 614 244 L 614 245 L 617 248 L 617 249 L 621 253 L 621 254 L 625 258 L 626 258 L 631 263 L 632 263 L 634 265 L 635 265 L 636 266 L 637 266 L 639 268 L 640 268 L 641 269 L 642 269 L 643 270 L 645 270 L 646 271 L 647 271 L 648 272 L 650 272 L 651 273 L 654 273 L 655 274 L 659 274 L 660 275 L 755 275 L 755 232 L 676 232 L 675 231 L 671 231 L 670 230 L 668 230 L 667 229 L 666 229 L 665 228 L 664 228 L 663 227 L 662 227 L 660 225 L 659 225 L 653 219 L 653 218 L 651 216 L 651 215 L 649 213 L 649 211 L 648 210 L 648 209 L 647 208 L 647 205 L 646 204 L 646 13 Z M 77 13 L 76 14 L 72 14 L 71 15 L 68 15 L 67 16 L 64 16 L 63 17 L 62 17 L 61 18 L 59 18 L 58 19 L 57 19 L 56 20 L 55 20 L 54 21 L 53 21 L 52 22 L 51 22 L 50 23 L 49 23 L 47 25 L 46 25 L 44 27 L 43 27 L 30 40 L 30 41 L 27 44 L 27 45 L 26 46 L 26 47 L 24 49 L 24 50 L 23 51 L 23 52 L 22 53 L 22 54 L 21 55 L 21 57 L 20 58 L 20 59 L 19 60 L 19 62 L 18 63 L 18 66 L 17 67 L 17 70 L 16 71 L 16 78 L 15 79 L 15 197 L 16 198 L 16 205 L 17 206 L 17 210 L 18 211 L 18 214 L 19 215 L 19 217 L 20 218 L 20 220 L 21 221 L 21 223 L 22 224 L 22 225 L 23 226 L 23 227 L 24 228 L 24 229 L 25 230 L 25 231 L 26 232 L 26 233 L 27 234 L 27 235 L 29 237 L 29 238 L 30 239 L 30 240 L 33 243 L 33 244 L 39 250 L 39 251 L 41 253 L 42 253 L 48 259 L 49 259 L 51 261 L 52 261 L 54 263 L 55 263 L 57 265 L 58 265 L 59 266 L 60 266 L 61 267 L 62 267 L 63 268 L 64 268 L 65 269 L 66 269 L 67 270 L 69 270 L 70 271 L 72 271 L 73 272 L 75 272 L 76 273 L 79 273 L 80 274 L 84 274 L 85 275 L 108 275 L 109 274 L 113 274 L 114 273 L 117 273 L 118 272 L 120 272 L 121 271 L 123 271 L 124 270 L 126 270 L 127 269 L 128 269 L 129 268 L 130 268 L 131 267 L 132 267 L 133 266 L 134 266 L 135 265 L 136 265 L 137 264 L 138 264 L 140 262 L 141 262 L 143 260 L 144 260 L 147 257 L 148 257 L 230 175 L 231 176 L 231 275 L 232 276 L 243 276 L 244 275 L 275 275 L 275 160 L 274 159 L 274 155 L 273 154 L 273 151 L 272 150 L 272 147 L 271 146 L 271 145 L 270 144 L 270 142 L 269 141 L 269 140 L 268 139 L 268 138 L 267 137 L 267 136 L 266 135 L 266 134 L 265 133 L 265 132 L 264 131 L 264 130 L 262 128 L 262 127 L 259 124 L 259 123 L 248 112 L 247 112 L 244 109 L 243 109 L 242 108 L 241 108 L 239 106 L 238 106 L 237 105 L 236 105 L 235 104 L 233 104 L 232 103 L 231 103 L 230 102 L 228 102 L 227 101 L 224 101 L 223 100 L 220 100 L 219 99 L 209 99 L 208 98 L 102 98 L 102 142 L 198 142 L 199 143 L 116 226 L 115 226 L 114 227 L 113 227 L 112 228 L 111 228 L 110 229 L 109 229 L 108 230 L 105 230 L 104 231 L 90 231 L 89 230 L 86 230 L 85 229 L 83 229 L 82 228 L 81 228 L 80 227 L 79 227 L 78 226 L 77 226 L 75 224 L 74 224 L 66 216 L 66 215 L 63 212 L 63 211 L 62 210 L 62 209 L 61 208 L 61 206 L 60 205 L 60 201 L 59 200 L 59 98 L 60 97 L 60 92 L 61 91 L 61 89 L 62 88 L 62 86 L 63 85 L 63 84 L 64 83 L 64 82 L 65 81 L 65 80 L 67 78 L 67 77 L 69 75 L 69 74 L 76 67 L 77 67 L 80 64 L 81 64 L 82 63 L 83 63 L 84 62 L 85 62 L 86 61 L 87 61 L 88 60 L 89 60 L 90 59 L 92 59 L 93 58 L 97 58 L 98 57 L 208 57 L 208 13 Z"/>
</svg>
